<svg width="108" height="108" viewBox="0 0 108 108" fill="none" xmlns="http://www.w3.org/2000/svg">
<g clip-path="url(#clip0_39_2)">
<path d="M102.473 95.7577C99.7115 95.7637 97.4835 98.0067 97.4835 100.758C97.4875 103.52 99.7195 105.759 102.482 105.752C105.23 105.748 107.461 103.513 107.46 100.755C107.46 97.9957 105.221 95.7577 102.473 95.7577ZM102.482 105.28C99.9805 105.28 97.9615 103.261 97.9605 100.758C97.9605 98.2577 99.9745 96.2317 102.476 96.2317C104.966 96.2317 106.99 98.2507 106.992 100.755C106.992 103.255 104.973 105.277 102.482 105.28Z" fill="#003B70"/>
<path d="M104.891 103.116C104.691 102.996 104.449 102.741 104.172 102.348L102.953 100.652C103.45 100.538 103.817 100.35 104.052 100.085C104.29 99.8186 104.414 99.5046 104.41 99.1386C104.41 98.7996 104.302 98.5096 104.091 98.2616C103.887 98.0156 103.632 97.8496 103.336 97.7586C103.036 97.6626 102.576 97.6196 101.954 97.6196L99.8044 97.6236V97.7866L100.027 97.7826C100.247 97.7826 100.417 97.8396 100.534 97.9736C100.61 98.0586 100.654 98.2926 100.656 98.6686L100.66 102.479C100.66 102.819 100.629 103.035 100.564 103.12C100.46 103.283 100.281 103.372 100.031 103.372H99.8094V103.527H102.34V103.372H102.104C101.888 103.372 101.72 103.305 101.609 103.177C101.529 103.085 101.487 102.847 101.487 102.479V100.765C101.531 100.768 101.575 100.768 101.625 100.772H101.745C101.84 100.772 101.956 100.768 102.104 100.765L104.098 103.524H105.674V103.368C105.352 103.329 105.091 103.248 104.891 103.116ZM101.731 100.492H101.628C101.589 100.489 101.54 100.489 101.487 100.489L101.483 98.0306C101.77 97.9776 101.999 97.9496 102.167 97.9496C102.547 97.9496 102.852 98.0656 103.082 98.3006C103.308 98.5266 103.43 98.8276 103.43 99.1956C103.43 99.5706 103.288 99.8836 103.001 100.124C102.711 100.372 102.293 100.492 101.731 100.492Z" fill="#003B70"/>
<path d="M76.3478 31.4408C76.5768 28.9198 80.1638 28.7888 79.0908 26.1708C77.8958 25.9418 76.9328 25.3328 75.9638 24.9738C75.4978 24.6208 74.8928 24.4968 74.1788 24.6238C71.0778 26.1778 70.0128 28.7948 68.6848 31.5508C68.5648 32.0288 68.3358 32.3898 68.0788 32.7448C68.0618 32.8048 68.0418 32.8718 67.9958 32.9318C67.8098 33.3538 67.7068 33.7538 67.4958 34.0658C67.3498 34.4478 67.1178 34.7558 66.9098 35.0568C66.4058 35.6628 65.8628 36.2088 65.7148 37.1748C65.9898 37.8268 66.3188 38.1798 66.9138 38.3758C67.0838 38.4108 67.2698 38.4538 67.5018 38.4958C67.6838 38.6828 67.8748 38.7218 67.9987 38.7218H68.0838C68.3368 38.7218 68.4688 38.4958 68.6918 38.3688C68.9248 38.2408 69.1808 38.1378 69.4108 38.2408C71.7988 35.9738 73.7077 34.0618 75.9707 31.7988C76.0988 31.6708 76.2258 31.5468 76.3478 31.4408Z" fill="#003B70"/>
<path d="M27.5138 74.0229C26.6708 74.6149 26.9048 75.4549 27.5158 76.1659C29.2998 77.0089 30.4938 79.6079 33.2388 78.3049C35.6318 75.9319 37.8937 73.2869 39.8038 70.5349C40.1388 70.1139 40.4327 69.6569 40.7048 69.1889C41.0377 68.6439 41.3357 68.0809 41.6067 67.5569C41.3518 67.2419 41.0377 66.9689 40.7028 66.7349C40.4067 66.5259 40.0967 66.3629 39.8027 66.2319C34.7858 63.8449 31.9208 72.3449 27.5138 74.0229Z" fill="#003B70"/>
<path d="M60.2472 18.0864C54.1402 20.0414 57.4642 27.2764 56.5211 32.0394L56.0381 32.5214C56.2881 33.3634 55.6822 34.4304 56.5252 34.9154C58.0352 35.7264 59.3132 34.1574 60.2561 33.3174C60.2971 33.2754 60.3192 33.2544 60.3412 33.2324C61.4072 28.6964 62.7052 23.9154 63.4111 19.4854C63.5372 17.4524 61.2932 18.6494 60.3302 18.0624C60.3082 18.0624 60.2841 18.0624 60.2472 18.0864Z" fill="#003B70"/>
<path d="M81.2549 53.1752C79.9339 52.9452 77.9129 52.9482 76.3639 52.3612H75.9849C74.6909 52.2372 73.4879 52.3632 73.0089 53.6632C73.0089 55.3422 73.9719 55.8212 74.5639 57.1272C75.0429 57.3712 75.5229 57.6052 75.9879 57.8532C78.9899 59.0542 82.3289 59.9922 85.5649 60.9592C86.5259 60.9552 88.3129 61.1822 88.9179 59.8582C89.7519 58.0762 88.3109 56.8832 87.9479 55.4552C85.8039 54.4882 83.5199 53.9072 81.2549 53.1752Z" fill="#003B70"/>
<path d="M35.7334 42.2143C34.0544 40.3023 31.8944 39.7143 29.7504 38.5243C27.1294 37.4333 24.3744 34.3313 21.6284 36.4913C19.2394 45.2243 30.3394 42.2183 34.4164 46.6413C35.3824 46.8713 36.2164 47.8343 37.0404 46.8713C37.3944 44.8563 36.5744 43.8893 35.7334 42.2143Z" fill="#003B70"/>
<path d="M39.7744 27.9809C40.0694 28.4659 40.3634 28.9269 40.6784 29.3869C42.4424 31.9899 44.5444 34.4829 46.4744 36.7079C47.2714 36.9379 48.5124 37.1649 49.1354 36.5799C49.1604 36.5379 49.1994 36.5159 49.2224 36.4699C50.1834 34.8159 49.8704 33.4069 49.1354 32.1279C48.2104 30.5309 46.6584 29.1279 46.1114 27.7479C43.9644 25.5869 44.1934 21.5429 40.8554 20.8279C40.7974 20.8489 40.7334 20.8629 40.6734 20.8839C40.3764 21.0149 40.0774 21.2279 39.7684 21.4119C38.8264 22.1269 38.2174 23.3249 37.9894 24.4159C38.4704 25.5899 39.0584 26.7879 39.7744 27.9809Z" fill="#003B70"/>
<path d="M35.2657 60.5092C36.3327 60.0242 36.1067 58.9542 35.4907 58.1152C30.4757 56.2102 24.2657 55.9582 19.4857 58.3602C19.4427 58.5652 19.4037 58.7562 19.4037 58.9692V59.3262C19.4637 60.5372 20.0977 61.8022 21.0397 62.5562C26.4137 63.4902 30.3557 60.8702 35.2657 60.5092Z" fill="#003B70"/>
<path d="M68.1036 67.6664C68.2326 68.1194 68.4896 68.5024 68.7146 68.8554C70.2695 70.9954 73.7346 72.5464 76.0006 74.5794C76.4846 74.9334 76.9716 75.4184 77.3226 75.8994C78.7506 76.7394 80.3296 75.4154 81.5036 74.3384C81.9786 73.1514 81.6266 71.8274 81.0316 70.8854C79.4826 69.3104 77.8016 68.3674 75.9976 67.5314C73.6246 66.3344 71.1086 65.2694 68.8386 63.5864L68.7086 63.7144C68.4896 64.1784 68.2296 64.6594 68.1036 65.1414C68.0856 65.2904 68.0446 65.4144 68.0206 65.5624C67.8945 66.2144 67.8945 66.7994 68.0226 67.3264C68.0446 67.4504 68.0896 67.5574 68.1036 67.6664Z" fill="#003B70"/>
<path d="M76.3556 41.8207C76.2316 41.8247 76.1076 41.8247 75.9765 41.8247C74.7866 42.1817 73.6105 43.0217 72.7715 44.2177C73.6105 45.4127 74.7906 45.4127 75.9816 45.7697V45.6637C79.6916 44.6967 83.5086 43.2697 87.4586 42.6567C88.2966 41.8177 89.4866 40.9777 89.1356 40.0327C88.6496 38.1237 87.4505 36.5727 85.7915 35.8367C83.4026 36.6747 82.2126 38.5877 79.6896 39.0727C78.8515 40.3937 76.5865 40.3937 76.3556 41.8207Z" fill="#003B70"/>
<path d="M66.5665 79.5795C64.4455 76.7715 65.3395 70.6415 60.2844 70.1835C60.2385 70.1835 60.1755 70.1665 60.1354 70.1665C55.7105 71.8425 60.0145 75.9105 59.8895 78.2835C60.0385 78.5955 60.1845 78.9105 60.2914 79.2505C61.1305 81.5775 61.3404 84.3045 63.0004 86.2765C64.9555 86.8645 65.8765 85.6885 66.9455 84.4495C67.1565 84.1695 67.4065 83.9035 67.6594 83.6485C67.9495 82.5545 67.5064 81.3045 66.9435 80.2275C66.8185 79.9975 66.6874 79.7925 66.5665 79.5795Z" fill="#003B70"/>
<path d="M49.1603 71.7641C47.6943 72.3731 47.3203 73.5521 46.4993 74.8341C45.9113 75.5681 46.1463 76.8641 45.4362 77.4541L45.2053 79.0061C43.4003 80.9181 43.4043 82.9521 42.5612 85.5781C43.3853 88.1361 47.7292 87.6291 49.1732 85.4731C49.4033 85.1081 49.5753 84.7151 49.6143 84.2721C51.1842 80.6851 52.1253 76.5091 52.3733 72.5641C51.5353 71.8451 50.0872 71.8491 49.2473 71.7291C49.2292 71.7431 49.1853 71.7641 49.1603 71.7641Z" fill="#003B70"/>
<path d="M10.2491 64.4858C9.77105 64.0968 9.26905 63.8838 8.74905 63.8518C8.22805 63.8238 7.54505 63.9338 6.69505 64.1848L3.25705 65.1978C2.78505 65.3398 2.47405 65.3858 2.31805 65.3328C1.98705 65.2408 1.77005 65.0208 1.67205 64.6918L1.57605 64.3728L1.34805 64.4478L2.23405 67.4398L2.46305 67.3688L2.37105 67.0538C2.27505 66.7318 2.29505 66.4658 2.43005 66.2468C2.52705 66.0898 2.84605 65.9348 3.37505 65.7788L6.80505 64.7618C7.70605 64.4968 8.36805 64.3868 8.79405 64.4398C9.21705 64.4858 9.61305 64.6918 9.98905 65.0598C10.357 65.4278 10.6241 65.8848 10.7911 66.4408C10.9171 66.8738 10.9481 67.2588 10.883 67.6058C10.817 67.9498 10.6831 68.2398 10.497 68.4668C10.3081 68.6968 10.008 68.9058 9.60105 69.0898C9.19205 69.2738 8.82505 69.4198 8.48905 69.5108L4.80105 70.6058C4.32605 70.7438 3.99705 70.7828 3.81605 70.7258C3.55305 70.6378 3.36605 70.4248 3.26605 70.0708L3.16605 69.7488L2.93505 69.8158L4.01805 73.4848L4.25005 73.4148L4.15605 73.0918C4.06105 72.7698 4.07405 72.5108 4.19305 72.3238C4.31505 72.1318 4.63605 71.9628 5.15805 71.8028L8.46405 70.8218C9.48905 70.5248 10.164 70.2488 10.497 70.0108C10.98 69.6458 11.313 69.1778 11.494 68.6008C11.6691 68.0318 11.618 67.2838 11.3511 66.3558C11.0981 65.5028 10.732 64.8858 10.2491 64.4858Z" fill="#003B70"/>
<path d="M1.39755 60.9692C1.48755 60.8352 1.66955 60.6262 1.95355 60.3462L8.08855 59.9532C8.58355 59.9282 8.90555 59.9532 9.05055 60.0452C9.28655 60.1872 9.41355 60.4422 9.43955 60.8242L9.45855 61.1252L9.70255 61.1152L9.50555 58.0402L9.26455 58.0592L9.28055 58.3662C9.30355 58.7132 9.23055 58.9692 9.05955 59.1492C8.92755 59.2772 8.59655 59.3582 8.05355 59.3862L2.62155 59.7342L9.35855 53.4612L9.34455 53.2282L1.91155 53.7022C1.41055 53.7352 1.09455 53.7062 0.951546 53.6172C0.711548 53.4802 0.579552 53.2212 0.557548 52.8492L0.537552 52.5332L0.299545 52.5552L0.492546 55.6222L0.73555 55.6082L0.713547 55.2962C0.689552 54.9562 0.766548 54.6942 0.938545 54.5172C1.06955 54.3932 1.39755 54.3122 1.93955 54.2732L7.03155 53.9502L0.755546 59.7692L0.910545 62.1592L1.14955 62.1492C1.13155 61.8902 1.14255 61.6982 1.16855 61.5682C1.23455 61.3102 1.31255 61.1042 1.39755 60.9692Z" fill="#003B70"/>
<path d="M0.839851 49.9418C0.857849 49.7358 0.927848 49.5478 1.05385 49.3648C1.14284 49.2368 1.24685 49.1558 1.36185 49.1278C1.51285 49.0818 1.80685 49.0818 2.25384 49.1278L7.93484 49.7118C8.46285 49.7638 8.79185 49.8488 8.91385 49.9698C9.10885 50.1578 9.19385 50.4268 9.15485 50.7958L9.12085 51.1068L9.36185 51.1308L9.74785 47.3598L9.50685 47.3378L9.47385 47.6538C9.45585 47.8588 9.38185 48.0578 9.25785 48.2278C9.16185 48.3588 9.06485 48.4438 8.95285 48.4678C8.80585 48.5138 8.51185 48.5068 8.06285 48.4648L2.37785 47.8838C1.85284 47.8308 1.52685 47.7388 1.39384 47.6218C1.19884 47.4338 1.12085 47.1618 1.16185 46.8038L1.19185 46.4848L0.950844 46.4608L0.568848 50.2318L0.805847 50.2538L0.839851 49.9418Z" fill="#003B70"/>
<path d="M1.68076 43.684C1.78976 43.553 1.92876 43.454 2.09176 43.379C2.18776 43.336 2.45376 43.288 2.87376 43.227L11.1098 42.047L11.1678 41.821L4.72976 36.845C4.35076 36.559 4.09276 36.279 3.94776 35.996C3.85176 35.808 3.81976 35.545 3.84476 35.234L3.61476 35.17L2.89176 37.798L3.12576 37.862C3.14376 37.816 3.16076 37.777 3.17276 37.759C3.29876 37.479 3.43576 37.298 3.57676 37.21C3.72276 37.115 3.85576 37.089 3.97876 37.122C4.16676 37.175 4.47676 37.363 4.90976 37.696L9.29676 41.063L3.69576 41.86C3.19676 41.931 2.84576 41.942 2.64076 41.881C2.48276 41.839 2.37776 41.747 2.31276 41.605C2.24676 41.459 2.25376 41.184 2.32076 40.777L2.09176 40.712L1.13176 44.201L1.36776 44.268C1.45676 44.01 1.56176 43.819 1.68076 43.684Z" fill="#003B70"/>
<path d="M14.0274 29.0649L13.9073 29.2919C14.2563 29.7939 14.4864 30.2259 14.6103 30.5909C14.6913 30.8679 14.7163 31.1269 14.6753 31.3559C14.6313 31.5899 14.4933 31.9259 14.2663 32.3689L13.5763 33.7009C13.4653 33.9199 13.3653 34.0579 13.2803 34.1079C13.1973 34.1649 13.1163 34.1859 13.0203 34.1749C12.9273 34.1689 12.7094 34.0729 12.3593 33.8989L9.77835 32.5569L10.6694 30.8329C10.8373 30.5059 10.9983 30.2799 11.1633 30.1669C11.3204 30.0459 11.4853 29.9899 11.6573 29.9899C11.7934 29.9929 12.0623 30.0639 12.4724 30.2059L12.5873 29.9899L9.85435 28.5799L9.74235 28.7929C10.1763 29.0469 10.4314 29.3199 10.5063 29.6139C10.5623 29.8339 10.4753 30.1669 10.2453 30.6159L9.35135 32.3399L6.25135 30.7369L7.36435 28.5799C7.56834 28.1939 7.73835 27.9389 7.87635 27.8109C8.05535 27.6629 8.24834 27.5779 8.45235 27.5559C8.66235 27.5429 8.98434 27.5989 9.44334 27.7299L9.56235 27.5029L7.79835 26.6999L4.67035 32.7449L4.87935 32.8579L5.02735 32.5819C5.19535 32.2549 5.39035 32.0679 5.61735 32.0039C5.78535 31.9609 6.11835 32.0719 6.61735 32.3339L11.7143 34.9679C12.0974 35.1639 12.3354 35.3189 12.4353 35.4289C12.5393 35.5349 12.5813 35.6629 12.5813 35.8219C12.5883 36.0349 12.5424 36.2329 12.4464 36.4169L12.3013 36.7009L12.5154 36.8059L15.6404 30.7609L14.0274 29.0649Z" fill="#003B70"/>
<path d="M9.95905 23.6608C10.162 23.3988 10.401 23.2598 10.649 23.2468C10.8351 23.2428 11.146 23.4058 11.5721 23.7598L16.023 27.3368C16.416 27.6518 16.635 27.8888 16.6841 28.0378C16.774 28.3208 16.6961 28.6008 16.464 28.8908L16.259 29.1608L16.441 29.3088L18.819 26.3558L18.632 26.2038L18.41 26.4718C18.208 26.7348 17.9751 26.8618 17.727 26.8698C17.5441 26.8828 17.2401 26.7168 16.805 26.3628L14.802 24.7548C14.8481 24.7018 14.8921 24.6518 14.939 24.6058C14.9771 24.5568 15.021 24.5068 15.053 24.4678C15.1421 24.3548 15.2511 24.2098 15.3811 24.0358L20.477 24.2918L21.957 22.4528L21.7681 22.3038C21.422 22.6478 21.0841 22.8748 20.746 22.9918C20.411 23.1048 19.884 23.1398 19.1701 23.1008L16.05 22.9348C16.3901 22.2518 16.511 21.6488 16.4201 21.1218C16.3351 20.5898 16.08 20.1618 15.649 19.8178C15.2551 19.5038 14.819 19.3468 14.34 19.3578C13.856 19.3758 13.426 19.5058 13.0421 19.7688C12.648 20.0308 12.1671 20.5298 11.581 21.2588L9.56305 23.7668L9.74805 23.9198L9.95905 23.6608ZM12.1671 21.3158C12.5201 20.8778 12.9461 20.6288 13.428 20.5758C13.911 20.5228 14.375 20.6648 14.798 21.0188C15.2411 21.3658 15.469 21.8298 15.481 22.3958C15.5031 22.9488 15.2411 23.5618 14.717 24.2198C14.69 24.2488 14.663 24.2878 14.621 24.3338C14.582 24.3788 14.5301 24.4358 14.484 24.4968L11.618 22.1948C11.8231 21.8078 12.0061 21.5178 12.1671 21.3158Z" fill="#003B70"/>
<path d="M19.3136 17.2758C19.6396 17.3998 20.0036 17.4528 20.4076 17.4418C20.8136 17.4278 21.4456 17.3388 22.2946 17.1718C23.1466 17.0058 23.6766 16.9178 23.8906 16.9038C24.2066 16.8858 24.4836 16.9248 24.7196 17.0168C24.9516 17.1128 25.1406 17.2328 25.2806 17.3998C25.5366 17.7008 25.6346 18.0578 25.5766 18.4828C25.5256 18.9078 25.2886 19.2948 24.8766 19.6448C24.5196 19.9528 24.1216 20.1478 23.6856 20.2438C23.2526 20.3418 22.8606 20.3288 22.5116 20.2118C22.1616 20.0938 21.7356 19.8328 21.2386 19.4218L21.0576 19.5778L23.0176 21.8898L23.1986 21.7378C23.0916 21.5568 23.0396 21.4218 23.0476 21.3348C23.0526 21.2418 23.0996 21.1638 23.1786 21.0928C23.2676 21.0218 23.5166 20.8978 23.9276 20.7278C24.3406 20.5578 24.6066 20.4418 24.7226 20.3708C24.9206 20.2538 25.1146 20.1118 25.3086 19.9458C25.9356 19.4188 26.2886 18.7978 26.3666 18.0898C26.4496 17.3808 26.2756 16.7758 25.8366 16.2658C25.6196 15.9978 25.3306 15.7958 24.9996 15.6538C24.6696 15.5188 24.3126 15.4558 23.9276 15.4658C23.5426 15.4838 22.8916 15.5888 21.9766 15.7848C20.8526 16.0258 20.0786 16.1108 19.6646 16.0358C19.3826 15.9898 19.1486 15.8628 18.9766 15.6568C18.7486 15.3908 18.6516 15.0548 18.7016 14.6508C18.7486 14.2478 18.9456 13.9008 19.2896 13.6098C19.5926 13.3518 19.9526 13.1818 20.3746 13.0928C20.7866 13.0048 21.1866 13.0328 21.5636 13.1678C21.9486 13.2978 22.3516 13.5678 22.7916 13.9608L22.9806 13.8008L20.9996 11.4748L20.8136 11.6298C20.9146 11.8108 20.9616 11.9568 20.9496 12.0518C20.9376 12.1508 20.8896 12.2358 20.7986 12.3068C20.7266 12.3748 20.5586 12.4418 20.3026 12.5158C19.7536 12.6858 19.2986 12.9168 18.9396 13.2168C18.3646 13.7098 18.0436 14.2828 17.9696 14.9448C17.8956 15.6148 18.0656 16.1918 18.4726 16.6708C18.7096 16.9458 18.9876 17.1518 19.3136 17.2758Z" fill="#003B70"/>
<path d="M24.1456 9.78848C24.3246 9.6835 24.5196 9.61551 24.7396 9.6015C24.8916 9.6015 25.0146 9.62649 25.1106 9.6965C25.2366 9.78848 25.4186 10.0225 25.6566 10.3975L28.7036 15.2315C28.9856 15.6825 29.1196 15.9935 29.1036 16.1635C29.0776 16.4395 28.9106 16.6705 28.6026 16.8605L28.3346 17.0235L28.4656 17.2295L31.6686 15.2105L31.5386 15.0095L31.2726 15.1755C31.0936 15.2855 30.8996 15.3495 30.6846 15.3625C30.5236 15.3665 30.3986 15.3385 30.3026 15.2675C30.1816 15.1755 29.9986 14.9445 29.7586 14.5625L26.7146 9.73151C26.4296 9.2825 26.3036 8.9715 26.3186 8.79748C26.3486 8.5275 26.5116 8.29849 26.8156 8.10651L27.0846 7.93649L26.9546 7.7345L23.7556 9.75351L23.8816 9.9555L24.1456 9.78848Z" fill="#003B70"/>
<path d="M29.3727 6.53452C29.6757 6.41052 29.9447 6.39551 30.1787 6.5065C30.3427 6.59152 30.5327 6.88852 30.7417 7.3945L32.9407 12.6645C33.1297 13.1245 33.2117 13.4395 33.1797 13.6095C33.1267 13.8905 32.9267 14.1025 32.5867 14.2435L32.2767 14.3715L32.3637 14.5945L36.0107 13.0755C37.5927 12.4165 38.5927 11.5035 39.0147 10.3275C39.3877 9.2825 39.3367 8.1875 38.8657 7.05152C38.5077 6.20853 38.0047 5.54651 37.3557 5.06152C36.6967 4.5755 35.9947 4.32453 35.2437 4.31351C34.4907 4.3035 33.5057 4.55151 32.2927 5.0585L28.9677 6.43851L29.0627 6.6655L29.3727 6.53452ZM32.7218 5.4155C33.6807 5.0155 34.6077 5.01151 35.4877 5.40051C36.3737 5.79752 37.0527 6.55551 37.5197 7.68552C37.9858 8.80451 38.0477 9.82053 37.7037 10.7275C37.3627 11.6345 36.7307 12.2855 35.7987 12.6715C35.4547 12.8125 35.0017 12.9365 34.4477 13.0325L31.5637 6.10251C31.9757 5.7905 32.3608 5.56751 32.7218 5.4155Z" fill="#003B70"/>
<path d="M44.2579 10.3915L44.2189 10.1465C43.7879 10.1855 43.509 10.1715 43.3629 10.0905C43.22 10.0125 43.1369 9.90549 43.115 9.77048C43.0849 9.60449 43.1109 9.3425 43.202 8.97748L43.558 7.50449L46.9319 6.9205L47.675 8.08548C47.916 8.46448 48.054 8.74448 48.082 8.93448C48.108 9.07648 48.0659 9.2085 47.9599 9.32849C47.86 9.4455 47.636 9.54449 47.291 9.6185L47.3329 9.8555L50.769 9.2655L50.728 9.0235C50.368 9.0665 50.074 9.01749 49.8419 8.87848C49.617 8.74448 49.3289 8.40048 48.983 7.85849L44.707 1.13348L44.479 1.17249L42.6479 8.8645C42.492 9.54449 42.3219 10.0055 42.138 10.2425C42.048 10.3695 41.824 10.4935 41.472 10.6215L41.515 10.8515L44.2579 10.3915ZM44.587 3.20547L46.6689 6.47449L43.675 6.99149L44.587 3.20547Z" fill="#003B70"/>
<path d="M59.3654 8.2699C60.1553 7.48392 60.5833 6.47391 60.6523 5.2489C60.7043 4.3349 60.5343 3.51291 60.1534 2.7919C59.7704 2.0719 59.2393 1.54089 58.5753 1.2049C57.8994 0.867889 56.9093 0.666901 55.5833 0.59491L51.9904 0.400909L51.9814 0.6409L52.3064 0.658905C52.6434 0.679901 52.8913 0.786896 53.0513 0.988892C53.1664 1.1329 53.2083 1.4769 53.1783 2.03391L52.8683 7.73889C52.8423 8.23392 52.7814 8.55991 52.6763 8.69492C52.5043 8.9209 52.2383 9.03091 51.8663 9.00589L51.5284 8.98889L51.5193 9.23291L55.4664 9.44589C57.1783 9.5379 58.4794 9.14792 59.3654 8.2699ZM54.0724 8.72989L54.4743 1.22589C54.9794 1.1199 55.4283 1.08389 55.8203 1.10489C56.8613 1.15891 57.6913 1.5549 58.3224 2.29889C58.9494 3.03891 59.2254 4.01291 59.1633 5.23489C59.0993 6.44589 58.7153 7.38391 58.0134 8.06091C57.3094 8.73392 56.4543 9.03891 55.4503 8.98489C55.0784 8.96692 54.6163 8.8779 54.0724 8.72989Z" fill="#003B70"/>
<path d="M72.8717 12.1045C73.8678 11.5955 74.5757 10.7665 75.0107 9.61551C75.3347 8.75449 75.4258 7.92648 75.2787 7.1225C75.1348 6.3215 74.7917 5.65948 74.2567 5.1395C73.7097 4.61151 72.8277 4.1185 71.5938 3.64749L68.2278 2.38049L68.1447 2.60651L68.4538 2.7265C68.7637 2.84048 68.9697 3.01749 69.0618 3.25848C69.1248 3.4325 69.0618 3.77551 68.8658 4.28949L66.8468 9.63348C66.6747 10.1035 66.5137 10.3845 66.3678 10.4825C66.1418 10.6455 65.8517 10.6705 65.5027 10.5435L65.1947 10.4235L65.1057 10.6455L68.8027 12.0445C70.4077 12.6505 71.7657 12.6715 72.8717 12.1045ZM70.3468 3.91348C70.8557 3.97449 71.2948 4.06949 71.6657 4.20749C72.6387 4.5755 73.3138 5.20248 73.6888 6.1015C74.0587 6.99451 74.0307 8.0115 73.5997 9.14749C73.1718 10.2885 72.5237 11.0675 71.6487 11.4955C70.7818 11.9245 69.8727 11.9635 68.9218 11.5995C68.5748 11.4675 68.1657 11.2475 67.6897 10.9395L70.3468 3.91348Z" fill="#003B70"/>
<path d="M74.5616 14.1518L74.4326 14.3498L80.1656 18.0338L82.0106 16.5818L81.7846 16.4398C81.2546 16.7448 80.7996 16.9318 80.4316 17.0168C80.1486 17.0778 79.8916 17.0698 79.6616 17.0128C79.4346 16.9498 79.1106 16.7838 78.6876 16.5138L77.4246 15.6998C77.2226 15.5688 77.0956 15.4588 77.0526 15.3778C76.9996 15.2818 76.9856 15.1898 77.0066 15.1048C77.0286 15.0118 77.1326 14.8028 77.3446 14.4738L78.9206 12.0198L80.5586 13.0648C80.8706 13.2698 81.0746 13.4548 81.1816 13.6208C81.2836 13.7908 81.3246 13.9648 81.3116 14.1308C81.2956 14.2688 81.1946 14.5308 81.0176 14.9268L81.2176 15.0548L82.8796 12.4698L82.6796 12.3388C82.3806 12.7458 82.0846 12.9758 81.7886 13.0258C81.5646 13.0608 81.2406 12.9408 80.8156 12.6718L79.1796 11.6198L81.0676 8.67981L83.1086 9.98379C83.4756 10.2208 83.7176 10.4198 83.8296 10.5648C83.9616 10.7588 84.0276 10.9618 84.0276 11.1628C84.0276 11.3718 83.9426 11.6938 83.7676 12.1368L83.9816 12.2788L84.9416 10.5888L79.2046 6.90582L79.0756 7.11481L79.3436 7.2818C79.6466 7.4838 79.8166 7.69281 79.8596 7.92282C79.8836 8.0918 79.7426 8.41479 79.4436 8.88882L76.3406 13.7228C76.1076 14.0918 75.9306 14.3108 75.8116 14.4038C75.6986 14.4888 75.5656 14.5278 75.4046 14.5168C75.1956 14.4958 74.9956 14.4318 74.8276 14.3188L74.5616 14.1518Z" fill="#003B70"/>
<path d="M88.9737 26.1645C89.6316 26.3665 90.4076 26.3775 91.2947 26.1965L91.2606 25.9555C90.3596 26.0405 89.6756 26.0015 89.2026 25.8315C88.7306 25.6655 88.3036 25.3605 87.9226 24.9355C87.4896 24.4355 87.2166 23.8935 87.1146 23.3035C87.0126 22.7085 87.0946 22.1205 87.3657 21.5425C87.6396 20.9625 88.0746 20.4055 88.6736 19.8825C89.4056 19.2375 90.1016 18.8055 90.7706 18.5825C91.4416 18.3585 92.0436 18.3275 92.5816 18.4825C93.1157 18.6425 93.5786 18.9395 93.9646 19.3865C94.4266 19.9105 94.6697 20.4875 94.7046 21.1325C94.7336 21.7665 94.5026 22.4775 94.0076 23.2775L94.1386 23.4275L96.2646 21.2955L96.1126 21.1215C95.9216 21.2275 95.7517 21.2695 95.5846 21.2675C95.4716 21.2565 95.3726 21.2065 95.2947 21.1175C95.2387 21.0545 95.1906 20.9265 95.1426 20.7275C94.9706 20.0525 94.6697 19.4775 94.2496 18.9965C93.7046 18.3765 93.0506 17.9445 92.2926 17.6935C91.5266 17.4375 90.7376 17.4065 89.9206 17.5945C89.1096 17.7855 88.3696 18.1715 87.7036 18.7555C86.8836 19.4775 86.3676 20.3285 86.1547 21.3125C85.8676 22.6335 86.2036 23.8455 87.1706 24.9425C87.7086 25.5555 88.3077 25.9665 88.9737 26.1645Z" fill="#003B70"/>
<path d="M94.9214 35.5029C94.9834 35.2409 95.2085 34.8589 95.6064 34.3559L100.56 28.1229L100.454 27.9239L92.5874 28.7039C91.8945 28.7749 91.4084 28.7639 91.1174 28.6689C90.9754 28.6259 90.7834 28.4559 90.5504 28.1659L90.3394 28.2789L91.6805 30.7189L91.8895 30.6059C91.7095 30.2159 91.6364 29.9399 91.6655 29.7769C91.6965 29.6179 91.7655 29.5009 91.8824 29.4369C92.0294 29.3589 92.2905 29.2979 92.6635 29.2589L94.1734 29.1179L95.8204 32.1139L94.9655 33.1909C94.6925 33.5419 94.4655 33.7639 94.2964 33.8599C94.1734 33.9269 94.0345 33.9309 93.8885 33.8709C93.7424 33.8099 93.5775 33.6329 93.3895 33.3329L93.1824 33.4459L94.8595 36.4989L95.0685 36.3849C94.9124 36.0589 94.8625 35.7619 94.9214 35.5029ZM94.6925 29.0649L98.5594 28.6819L96.1575 31.7209L94.6925 29.0649Z" fill="#003B70"/>
<path d="M99.5724 43.8324L99.5544 43.6124C98.9664 43.5494 98.5134 43.4534 98.2094 43.3114C97.8974 43.1704 97.6573 42.9824 97.4834 42.7454C97.3073 42.5154 97.1183 42.0724 96.9223 41.4244L96.7383 40.8084C96.5733 40.2634 96.4973 39.9344 96.5063 39.8164C96.5143 39.7034 96.5623 39.6034 96.6304 39.5294C96.7343 39.4204 96.9653 39.3134 97.3073 39.2144L102.62 37.6064C103.127 37.4504 103.452 37.3874 103.606 37.4154C103.76 37.4404 103.907 37.5354 104.052 37.6854C104.194 37.8374 104.329 38.1454 104.464 38.5954L104.691 38.5234L103.528 34.6954L103.298 34.7634L103.393 35.0814C103.495 35.4034 103.478 35.6734 103.344 35.8864C103.245 36.0454 102.931 36.2044 102.404 36.3634L96.9503 38.0184C96.4633 38.1594 96.1463 38.2084 95.9854 38.1624C95.7054 38.0774 95.5123 37.8574 95.4023 37.5004L95.3033 37.1824L95.0804 37.2494L97.0583 43.8014L99.5724 43.8324Z" fill="#003B70"/>
<path d="M98.2214 46.443C97.9704 46.312 97.8254 46.057 97.7954 45.685L97.7664 45.356L97.5244 45.373L97.8694 49.308C98.0144 51.015 98.5814 52.244 99.5694 53.001C100.458 53.678 101.511 53.957 102.739 53.855C103.65 53.774 104.435 53.494 105.099 53.019C105.759 52.541 106.208 51.946 106.446 51.234C106.687 50.519 106.744 49.509 106.634 48.192L106.322 44.612L106.084 44.633L106.113 44.966C106.138 45.295 106.064 45.554 105.892 45.742C105.764 45.876 105.423 45.961 104.872 46.007L99.1934 46.506C98.6964 46.549 98.3694 46.528 98.2214 46.443ZM105.862 47.183C106.032 47.668 106.132 48.107 106.163 48.5C106.254 49.537 105.973 50.412 105.331 51.135C104.688 51.861 103.757 52.276 102.548 52.378C101.336 52.485 100.357 52.237 99.5914 51.634C98.8294 51.029 98.4004 50.232 98.3174 49.226C98.2824 48.862 98.3024 48.39 98.3784 47.83L105.862 47.183Z" fill="#003B70"/>
<path d="M97.5058 61.0754L97.0308 64.5244L97.2708 64.5634C97.3438 64.2104 97.4768 63.9444 97.6768 63.7644C97.8818 63.5864 98.2938 63.4164 98.9118 63.2534L106.616 61.2104L106.647 60.9834L99.8658 56.9114C99.2718 56.5534 98.8878 56.2524 98.7098 56.0044C98.6158 55.8844 98.5688 55.6364 98.5548 55.2574L98.3158 55.2254L97.9348 57.9914L98.1758 58.0224C98.2588 57.6024 98.3688 57.3364 98.4838 57.2234C98.6028 57.1094 98.7268 57.0664 98.8618 57.0814C99.0308 57.1054 99.2758 57.2124 99.5908 57.4034L100.898 58.1964L100.43 61.5824L99.0928 61.9364C98.6638 62.0574 98.3498 62.0964 98.1598 62.0744C98.0178 62.0504 97.9058 61.9794 97.8248 61.8374C97.7428 61.7024 97.7148 61.4584 97.7508 61.1044L97.5058 61.0754ZM101.344 58.4584L104.673 60.4664L100.931 61.4654L101.344 58.4584Z" fill="#003B70"/>
<path d="M98.7833 71.7992C99.1073 71.5942 99.6132 71.1722 100.307 70.5452C101.148 69.7662 101.775 69.3102 102.172 69.1602C102.443 69.0582 102.7 69.0552 102.958 69.1402C103.288 69.2602 103.534 69.5002 103.702 69.8652C103.859 70.2372 103.872 70.6342 103.718 71.0632C103.585 71.4422 103.364 71.7712 103.047 72.0582C102.731 72.3452 102.374 72.5222 101.975 72.5962C101.584 72.6702 101.097 72.6532 100.52 72.5322L100.438 72.7552L103.319 73.7682L103.399 73.5412C103.223 73.4322 103.114 73.3292 103.077 73.2442C103.034 73.1522 103.034 73.0532 103.068 72.9532C103.103 72.8552 103.213 72.7052 103.395 72.5152C103.787 72.0972 104.054 71.6642 104.212 71.2222C104.46 70.5172 104.453 69.8552 104.179 69.2452C103.907 68.6372 103.473 68.2222 102.875 68.0102C102.53 67.9002 102.189 67.8612 101.846 67.9142C101.505 67.9712 101.165 68.1092 100.823 68.3252C100.475 68.5412 99.9803 68.9382 99.3283 69.5112C98.6853 70.0812 98.2653 70.4292 98.0913 70.5452C97.8233 70.7152 97.5703 70.8212 97.3203 70.8642C97.0693 70.9062 96.8443 70.8892 96.6373 70.8192C96.2662 70.6872 96.0013 70.4252 95.8333 70.0312C95.6653 69.6432 95.6773 69.1932 95.8522 68.6792C96.0073 68.2332 96.2493 67.8642 96.5803 67.5572C96.9093 67.2552 97.2503 67.0742 97.6093 66.9932C97.9713 66.9222 98.4703 66.9332 99.1053 67.0362L99.1833 66.8062L96.3253 65.8072L96.2443 66.0332C96.4313 66.1292 96.5383 66.2182 96.5803 66.2962C96.6213 66.3772 96.6263 66.4692 96.5872 66.5692C96.5473 66.6822 96.3963 66.9122 96.1323 67.2632C95.8573 67.6202 95.6893 67.8512 95.6282 67.9822C95.5173 68.1802 95.4153 68.4002 95.3263 68.6402C95.0553 69.4122 95.0663 70.1202 95.3513 70.7692C95.6393 71.4202 96.0953 71.8602 96.7303 72.0822C97.0603 72.1892 97.4073 72.2242 97.7623 72.1852C98.1213 72.1392 98.4593 72.0042 98.7833 71.7992Z" fill="#003B70"/>
<path d="M18.2081 85.9653L18.359 86.1003C18.5151 86.2313 18.591 86.3793 18.5981 86.5353C18.5981 86.6453 18.483 86.8293 18.2641 87.0803L15.9761 89.7113C15.771 89.9453 15.623 90.0763 15.525 90.1013C15.355 90.1513 15.1811 90.0943 15.011 89.9483L14.858 89.8153L14.761 89.9243L17.914 92.6723L19.2231 91.8723L19.1421 91.7623C18.815 91.9253 18.552 92.0213 18.3471 92.0453C18.1401 92.0733 17.9611 92.0533 17.789 91.9863C17.624 91.9253 17.383 91.7553 17.068 91.4893L16.774 91.2243C16.511 90.9973 16.3651 90.8523 16.331 90.7883C16.298 90.7253 16.285 90.6603 16.3 90.5973C16.3221 90.5083 16.4071 90.3813 16.551 90.2183L18.7821 87.6543C18.995 87.4093 19.1401 87.2723 19.229 87.2363C19.318 87.2003 19.425 87.2003 19.5451 87.2363C19.6691 87.2683 19.8361 87.3783 20.054 87.5723L20.149 87.4593L18.304 85.8553L18.2081 85.9653Z" fill="#003B70"/>
<path d="M26.5343 93.0092C26.7343 92.9382 26.9153 92.9592 27.0873 93.0902L27.2533 93.2072L27.3463 93.0902L25.8023 91.9572L25.7133 92.0712L25.8743 92.1912C26.0403 92.3152 26.1313 92.4562 26.1443 92.6092C26.1593 92.7222 26.0593 92.9092 25.8593 93.1862L24.5553 94.9462C24.2173 95.4032 23.9313 95.7002 23.7123 95.8272C23.4813 95.9582 23.2093 96.0122 22.8933 95.9582C22.5803 95.9272 22.2833 95.7992 21.9963 95.5872C21.7763 95.4242 21.6133 95.2502 21.5173 95.0522C21.4283 94.8642 21.3873 94.6732 21.3923 94.4922C21.3993 94.3162 21.4723 94.1072 21.6023 93.8592C21.7303 93.6212 21.8613 93.4162 21.9873 93.2462L23.3863 91.3592C23.5663 91.1112 23.7123 90.9722 23.8183 90.9342C23.9813 90.8772 24.1513 90.9152 24.3353 91.0432L24.5003 91.1672L24.5853 91.0542L22.7103 89.6652L22.6173 89.7792L22.7863 89.9032C22.9473 90.0242 23.0373 90.1512 23.0523 90.2892C23.0613 90.4272 22.9713 90.6292 22.7713 90.8982L21.5143 92.5982C21.1303 93.1182 20.9013 93.5042 20.8223 93.7382C20.7203 94.0962 20.7333 94.4462 20.8553 94.7902C20.9793 95.1372 21.2823 95.4882 21.7543 95.8352C22.1963 96.1572 22.5973 96.3272 22.9763 96.3452C23.3553 96.3562 23.6803 96.2782 23.9433 96.1012C24.2063 95.9232 24.5033 95.6182 24.8253 95.1872L26.1273 93.4232C26.3043 93.1822 26.4443 93.0442 26.5343 93.0092Z" fill="#003B70"/>
<path d="M33.044 97.6166C33.1939 97.3536 33.3189 97.2016 33.413 97.1596C33.5669 97.0856 33.741 97.1136 33.938 97.2266L34.105 97.3226L34.177 97.1986L32.855 96.4196L29.062 99.1036L29.493 94.4686L28.174 93.6926L28.0949 93.8236C28.2869 93.9296 28.4149 94.0356 28.4719 94.1316C28.533 94.2266 28.56 94.3156 28.5569 94.4006C28.546 94.5176 28.4839 94.6836 28.3629 94.8866L26.5799 97.9386C26.4299 98.1966 26.3139 98.3526 26.2099 98.3916C26.062 98.4706 25.8869 98.4486 25.6899 98.3316L25.5249 98.2326L25.4539 98.3596L27.074 99.3126L27.1499 99.1816L26.9839 99.0866C26.8019 98.9796 26.6899 98.8556 26.6649 98.7076C26.6479 98.6006 26.7209 98.4026 26.8829 98.1156L28.7029 94.9996L28.2199 99.9746L28.3329 100.039L32.42 97.1666L30.6069 100.28C30.451 100.542 30.3289 100.694 30.2349 100.74C30.0829 100.814 29.9129 100.794 29.711 100.673L29.546 100.577L29.4719 100.709L31.4549 101.863L31.531 101.739L31.368 101.643C31.183 101.533 31.0799 101.41 31.046 101.261C31.0279 101.154 31.0979 100.956 31.268 100.67L33.044 97.6166Z" fill="#003B70"/>
<path d="M37.1768 98.6606L37.3578 98.7456L37.4148 98.6116L35.3118 97.6556L35.2458 97.7896L35.4198 97.8676C35.5378 97.9216 35.6378 97.9986 35.7168 98.1046C35.7708 98.1826 35.7988 98.2576 35.7948 98.3206C35.7858 98.4166 35.7318 98.5946 35.6148 98.8486L34.1748 102.026C34.0388 102.316 33.9308 102.497 33.8388 102.543C33.6918 102.624 33.5148 102.61 33.3108 102.521L33.1388 102.44L33.0768 102.578L35.1868 103.534L35.2438 103.4L35.0678 103.315C34.9518 103.265 34.8568 103.187 34.7758 103.081C34.7218 103 34.6928 102.918 34.6938 102.858C34.7008 102.763 34.7608 102.589 34.8708 102.341L36.3148 99.1566C36.4498 98.8666 36.5638 98.6886 36.6588 98.6426C36.8068 98.5656 36.9798 98.5756 37.1768 98.6606Z" fill="#003B70"/>
<path d="M43.8204 100.92L42.0394 100.321L41.9913 100.463L42.1684 100.517C42.3683 100.587 42.4993 100.683 42.5594 100.824C42.5984 100.927 42.5704 101.14 42.4644 101.451L41.4713 104.405L39.6324 99.5143L38.2424 99.0473L38.1924 99.1853C38.3443 99.2383 38.4494 99.2803 38.5184 99.3333C38.6494 99.4333 38.7433 99.5223 38.8033 99.5993C38.8584 99.6813 38.9364 99.8333 39.0233 100.06L37.8244 103.615C37.7283 103.902 37.6434 104.079 37.5604 104.143C37.4244 104.242 37.2474 104.253 37.0314 104.182L36.8484 104.121L36.8044 104.263L38.5903 104.865L38.6333 104.724L38.4554 104.66C38.2514 104.593 38.1243 104.49 38.0614 104.345C38.0204 104.249 38.0524 104.044 38.1593 103.729L39.2173 100.576L41.2083 105.832L41.3474 105.882L42.7973 101.568C42.8884 101.277 42.9823 101.101 43.0654 101.037C43.1983 100.941 43.3764 100.927 43.5903 100.998L43.7704 101.062L43.8204 100.92Z" fill="#003B70"/>
<path d="M48.5368 106.296L47.4939 101.536L47.3598 101.515L44.6949 105.542C44.4559 105.9 44.2628 106.126 44.1109 106.225C44.0318 106.279 43.8788 106.303 43.6519 106.303L43.6248 106.445L45.2948 106.756L45.3248 106.612C45.0708 106.54 44.9108 106.473 44.8459 106.396C44.7789 106.321 44.7529 106.24 44.7679 106.161C44.7899 106.059 44.8559 105.917 44.9879 105.723L45.4948 104.951L47.5598 105.323L47.7419 106.151C47.7939 106.42 47.8168 106.612 47.7939 106.721C47.7798 106.81 47.7298 106.873 47.6449 106.923C47.5618 106.973 47.4068 106.973 47.1958 106.955L47.1669 107.097L49.2648 107.479L49.2919 107.334C49.0789 107.281 48.9198 107.189 48.8188 107.065C48.7139 106.934 48.6198 106.675 48.5368 106.296ZM45.6759 104.681L46.9908 102.705L47.5009 105.022L45.6759 104.681Z" fill="#003B70"/>
<path d="M67.3331 104.083C67.1951 103.912 67.0201 103.781 66.8011 103.683C66.5951 103.587 66.2091 103.463 65.6541 103.314C64.9751 103.137 64.5321 102.974 64.3271 102.812C64.1801 102.712 64.0901 102.577 64.0521 102.418C64.0011 102.206 64.0471 102.004 64.1781 101.795C64.3161 101.593 64.5181 101.462 64.7851 101.391C65.0261 101.334 65.2721 101.338 65.5211 101.409C65.7701 101.476 65.9841 101.6 66.1501 101.777C66.3201 101.954 66.4751 102.209 66.5991 102.546L66.7491 102.514L66.3091 100.697L66.1651 100.729C66.1661 100.856 66.1541 100.944 66.1221 100.998C66.0901 101.048 66.0371 101.079 65.9721 101.094C65.9111 101.111 65.8061 101.104 65.6431 101.076C65.3011 101.016 64.9831 101.016 64.7071 101.079C64.2581 101.189 63.9271 101.416 63.6981 101.756C63.4791 102.096 63.4061 102.457 63.5001 102.84C63.5531 103.056 63.6481 103.236 63.7881 103.396C63.9301 103.552 64.1121 103.686 64.3411 103.781C64.5651 103.892 64.9341 104.019 65.4421 104.157C65.9561 104.306 66.2661 104.401 66.3901 104.454C66.5661 104.532 66.7031 104.632 66.8081 104.745C66.9101 104.858 66.9811 104.982 67.0101 105.109C67.0621 105.344 67.0211 105.57 66.8711 105.782C66.7281 105.991 66.4961 106.144 66.1701 106.218C65.8911 106.289 65.6211 106.289 65.3571 106.222C65.0901 106.15 64.8811 106.034 64.7241 105.878C64.5621 105.719 64.4061 105.457 64.2471 105.099L64.1021 105.127L64.5391 106.93L64.6781 106.898C64.6671 106.771 64.6781 106.686 64.7001 106.636C64.7321 106.59 64.7821 106.562 64.8441 106.544C64.9111 106.522 65.0831 106.529 65.3471 106.551C65.6211 106.572 65.8001 106.579 65.8831 106.572C66.0211 106.562 66.1701 106.54 66.3201 106.505C66.8061 106.388 67.1691 106.144 67.4111 105.786C67.6501 105.421 67.7201 105.042 67.6261 104.642C67.5761 104.44 67.4801 104.245 67.3331 104.083Z" fill="#003B70"/>
<path d="M71.7902 99.6556C71.5372 99.5006 71.2572 99.4266 70.9602 99.4296C70.6642 99.4296 70.2852 99.5146 69.8352 99.6816L67.9742 100.361L68.0242 100.503L68.2152 100.429C68.4082 100.361 68.5712 100.365 68.7092 100.435C68.8062 100.485 68.9132 100.673 69.0282 100.995L70.2322 104.264C70.3352 104.557 70.3832 104.753 70.3542 104.848C70.3132 105.018 70.1892 105.145 69.9702 105.221L69.7842 105.291L69.8352 105.432L72.0032 104.636L71.9572 104.498L71.7622 104.568C71.5652 104.636 71.4082 104.636 71.2692 104.565C71.1742 104.512 71.0662 104.32 70.9492 104.006L70.4072 102.529C70.5792 102.508 70.7422 102.475 70.8902 102.44C71.0412 102.408 71.1782 102.369 71.3022 102.32C71.7942 102.14 72.1342 101.87 72.3122 101.509C72.4882 101.151 72.4982 100.765 72.3472 100.35C72.2422 100.039 72.0542 99.8156 71.7902 99.6556ZM71.5352 101.619C71.4152 101.888 71.2282 102.072 70.9692 102.16C70.8962 102.192 70.8072 102.221 70.6992 102.242C70.5952 102.27 70.4702 102.292 70.3282 102.316L69.5572 100.206C69.7402 100.089 69.8912 100.004 70.0212 99.9536C70.2322 99.8796 70.4292 99.8576 70.6292 99.8896C70.8272 99.9256 71.0102 100.015 71.1672 100.174C71.3302 100.329 71.4482 100.517 71.5242 100.733C71.6432 101.056 71.6452 101.349 71.5352 101.619Z" fill="#003B70"/>
<path d="M79.1706 101.062C79.0096 101.02 78.7756 100.868 78.4856 100.613L74.8076 97.4149L74.6816 97.4669L74.9456 102.305C74.9666 102.727 74.9476 103.028 74.8886 103.198C74.8516 103.29 74.7466 103.396 74.5616 103.534L74.6266 103.669L76.1516 102.908L76.0876 102.78C75.8436 102.882 75.6766 102.918 75.5786 102.9C75.4786 102.876 75.4096 102.833 75.3756 102.755C75.3276 102.663 75.3016 102.503 75.2906 102.273L75.2416 101.345L77.1166 100.421L77.7536 100.97C77.9576 101.151 78.0886 101.296 78.1456 101.402C78.1826 101.476 78.1826 101.554 78.1416 101.643C78.0996 101.739 77.9826 101.835 77.7966 101.941L77.8606 102.068L79.7746 101.126L79.7086 100.988C79.5086 101.08 79.3246 101.101 79.1706 101.062ZM75.2236 101.023L75.0956 98.6469L76.8866 100.202L75.2236 101.023Z" fill="#003B70"/>
<path d="M84.8649 97.443C84.6539 97.447 84.3378 97.369 83.9288 97.209L82.1458 96.522C82.4718 96.193 82.6588 95.864 82.7048 95.538C82.7558 95.219 82.6879 94.917 82.5049 94.634C82.3349 94.375 82.1089 94.205 81.8298 94.121C81.5448 94.036 81.2688 94.036 80.9919 94.114C80.7238 94.196 80.3448 94.394 79.8598 94.705L78.2159 95.782L78.2959 95.906L78.4709 95.789C78.6398 95.683 78.7968 95.647 78.9509 95.686C79.0609 95.714 79.2039 95.871 79.3889 96.158L81.2959 99.076C81.4669 99.337 81.5538 99.514 81.5448 99.614C81.5448 99.794 81.4579 99.943 81.2659 100.064L81.0919 100.177L81.1718 100.308L83.1089 99.037L83.0238 98.916L82.8539 99.03C82.6839 99.143 82.5249 99.174 82.3739 99.128C82.2639 99.104 82.1199 98.945 81.9348 98.664L81.0759 97.347C81.1158 97.33 81.1488 97.305 81.1839 97.287C81.2159 97.262 81.2458 97.245 81.2778 97.227C81.3508 97.181 81.4389 97.121 81.5518 97.036L84.4628 98.155L85.6729 97.362L85.5948 97.241C85.3269 97.372 85.0849 97.443 84.8649 97.443ZM81.9239 96.101C81.8228 96.426 81.5578 96.738 81.1288 97.021C81.1098 97.029 81.0789 97.046 81.0489 97.068C81.0199 97.085 80.9809 97.11 80.9418 97.134L79.7088 95.25C79.9028 95.067 80.0639 94.935 80.1909 94.847C80.4848 94.663 80.7769 94.599 81.0719 94.66C81.3618 94.719 81.5999 94.889 81.7798 95.165C81.9718 95.456 82.0199 95.771 81.9239 96.101Z" fill="#003B70"/>
<path d="M89.1241 91.2377C89.0941 91.0757 89.1611 90.9337 89.3161 90.8017L89.3961 90.7357L89.2991 90.6187L87.6911 91.9607L87.7851 92.0737C87.9571 91.9357 88.0921 91.8537 88.1801 91.8367C88.2731 91.8157 88.3641 91.8187 88.4451 91.8617C88.5381 91.8967 88.6601 92.0207 88.8351 92.2297L89.8361 93.4297C89.7671 93.6147 89.6751 93.7847 89.5621 93.9437C89.4511 94.1067 89.3201 94.2447 89.1681 94.3727C88.9061 94.5887 88.5871 94.7257 88.2161 94.7797C87.8351 94.8327 87.4381 94.7617 87.0131 94.5637C86.5921 94.3617 86.2111 94.0677 85.8821 93.6677C85.4791 93.1787 85.2371 92.6617 85.1791 92.1237C85.1061 91.4717 85.3341 90.9297 85.8671 90.4877C86.2551 90.1657 86.6701 90.0197 87.1141 90.0517C87.4201 90.0807 87.7681 90.2077 88.1511 90.4417L88.2541 90.3557L87.0611 89.1337L86.9421 89.2267C87.0211 89.3327 87.0661 89.4177 87.0711 89.4777C87.0711 89.5347 87.0541 89.5807 87.012 89.6127C86.9781 89.6477 86.8801 89.6907 86.7311 89.7397C86.4311 89.8497 86.2111 89.9387 86.0691 90.0157C85.9261 90.0917 85.7791 90.1967 85.6271 90.3207C85.2121 90.6687 84.9271 91.0537 84.7711 91.4897C84.5891 91.9997 84.5561 92.5457 84.6761 93.1187C84.7841 93.5967 84.9871 94.0217 85.2881 94.3857C85.706 94.8927 86.2371 95.2047 86.8701 95.3327C87.7091 95.4987 88.5411 95.2507 89.3351 94.5847C89.6161 94.3467 89.8471 94.1107 90.0251 93.8587C90.2071 93.6107 90.3611 93.3277 90.4921 93.0057L89.4301 91.7307C89.2461 91.5077 89.1461 91.3417 89.1241 91.2377Z" fill="#003B70"/>
<path d="M92.1252 85.1292C91.3851 85.1402 90.7742 85.4022 90.2942 85.9112C89.8101 86.4322 89.5731 87.0302 89.5662 87.7212C89.5612 88.5182 89.8752 89.2162 90.4982 89.8002C91.1141 90.3702 91.7832 90.6542 92.5182 90.6432C93.2502 90.6402 93.8672 90.3632 94.3782 89.8152C94.8771 89.2832 95.1071 88.6422 95.0682 87.8922C95.0252 87.1482 94.7052 86.4882 94.1082 85.9262C93.5272 85.3882 92.8652 85.1182 92.1252 85.1292ZM94.1632 89.6342C93.8432 89.9812 93.4461 90.1372 92.9821 90.1012C92.3782 90.0552 91.7532 89.7222 91.1141 89.1202C90.4812 88.5322 90.1331 87.9552 90.0542 87.3892C89.9931 86.9242 90.1242 86.5252 90.4552 86.1702C90.8112 85.7912 91.2151 85.6172 91.6812 85.6562C92.2642 85.6992 92.8872 86.0352 93.5621 86.6662C94.1862 87.2502 94.5282 87.8032 94.5901 88.3062C94.6551 88.8262 94.5162 89.2622 94.1632 89.6342Z" fill="#003B70"/>
<path d="M68.6957 44.4743C68.5717 44.2223 68.3447 43.9953 68.0857 43.6343C68.0717 43.5953 68.0507 43.5533 68.0057 43.5073C67.7727 43.2133 67.4807 42.9833 67.2757 42.6713C67.1437 42.5683 67.0217 42.4623 66.9147 42.3593C65.1307 40.8433 62.9227 38.8963 60.2597 38.2083C59.3787 37.9993 58.4507 37.9143 57.4647 38.0183C56.5267 37.7873 55.5587 37.6673 54.7207 37.6673C53.9257 37.6463 53.1467 37.6853 52.3887 37.8163C51.2807 37.9853 50.1897 38.2753 49.1357 38.6513C47.1697 39.3703 45.2577 40.3163 43.3717 41.1343C42.2777 42.1433 41.4457 43.2133 40.6897 44.3243C40.3757 44.8103 40.0797 45.2883 39.7857 45.7943C38.5897 48.1893 38.0047 50.7063 38.1347 53.4583H38.0107C38.5967 56.4333 38.7257 59.6623 39.7987 62.2863C40.0517 62.8543 40.3497 63.4423 40.6997 63.9693C40.8697 64.2173 41.0597 64.4503 41.2507 64.6773C43.0757 67.3403 45.9697 68.6613 49.1597 69.1253C50.2317 69.2883 51.3227 69.3523 52.4127 69.3303C53.1887 69.3303 53.9877 69.2883 54.7417 69.2253C56.3147 69.0933 57.8707 68.7353 59.2977 68.3823C59.6327 68.3393 59.9667 68.3003 60.2807 68.2303C63.3047 67.5993 65.2527 65.7543 66.9317 63.5723C67.3047 63.0873 67.6637 62.5633 68.0167 62.0353C68.0617 61.9963 68.0837 61.9543 68.1037 61.9153C68.3557 61.6813 68.4887 61.3233 68.7087 61.0683C69.4207 60.0023 70.2617 58.8023 70.9757 57.8593C72.6477 53.3063 71.3257 48.1633 68.6957 44.4743ZM68.0947 54.3793C68.0787 54.4823 68.0597 54.5703 68.0097 54.6513C67.7437 55.4053 67.2827 56.1853 67.2827 57.1303C67.1567 57.4033 67.0477 57.6723 66.9257 57.9483C65.4837 60.9693 63.1317 63.3813 60.2807 64.8123C58.6037 65.6513 56.7357 66.1403 54.7407 66.2213H54.1547C53.5627 66.3273 52.9987 66.3493 52.4127 66.3103C51.2997 66.2253 50.1837 65.9093 49.1597 65.4713C47.3757 64.6983 45.7977 63.5403 44.5827 62.5423C41.9567 57.6303 40.8827 52.4873 43.8607 47.1113C45.0467 45.1393 46.9167 43.3553 49.1447 42.2643C50.1677 41.7613 51.2607 41.4023 52.3917 41.2333C52.9607 41.1483 53.5427 41.1063 54.1397 41.1233H54.7237C56.6117 41.1193 58.4987 41.4593 60.2607 42.1333C62.2957 42.9083 64.1667 44.1193 65.7207 45.7763C66.0757 46.6803 66.5207 47.5583 66.9207 48.4653C67.4007 49.5943 67.8027 50.7953 67.8647 52.1123C67.9287 52.1763 67.9747 52.2363 68.0097 52.3213C68.0787 52.4283 68.0947 52.5303 68.0947 52.5943C68.3497 53.1863 68.3497 53.7913 68.0947 54.3793Z" fill="#003B70"/>
<path d="M64.9872 49.0098C63.9582 46.9138 62.1542 45.5108 60.2662 44.4808C59.7792 44.2088 59.2782 43.9778 58.7952 43.7448C57.4722 43.3938 56.0472 43.0358 54.7232 43.0358C53.9322 42.9938 53.1532 43.0138 52.3972 43.1418C51.4922 43.3118 50.6342 43.6448 49.8352 44.2328C49.6042 44.3608 49.3752 44.4878 49.1442 44.6358C46.4402 46.2968 44.7652 49.2758 44.0932 52.3808C42.4372 54.7538 45.0552 56.6838 45.4212 58.5928C46.2772 59.8718 47.5422 61.5258 49.1592 62.7408C50.1242 63.5018 51.2172 64.0688 52.4102 64.3368C53.1402 64.5008 53.9242 64.5458 54.7402 64.4398C56.9872 64.3308 58.7682 63.6788 60.2802 62.6948C62.1452 61.4548 63.6162 59.7118 64.9962 57.8638C65.1202 57.1298 64.9962 56.5428 65.7302 55.8278C65.7272 53.9158 66.0812 52.4698 65.2442 51.1678C66.0782 50.3278 64.8812 49.9728 64.9872 49.0098ZM61.9092 56.3158C61.5142 57.1098 60.9412 57.8848 60.2732 58.5798C58.9752 59.9038 57.1902 60.8028 55.2172 60.7218L54.7362 60.6228L52.4082 60.2018L51.3982 60.0128C50.5612 59.1308 49.7822 58.2318 49.1512 57.2648C48.0602 55.6288 47.3702 53.7878 47.4482 51.5428C47.9072 50.5328 48.3692 49.2968 49.1462 48.2588C49.5672 47.6998 50.1112 47.2138 50.7822 46.8568C51.2632 46.5448 51.8092 46.3328 52.3972 46.1838C53.1272 46.0138 53.9322 45.9508 54.7252 46.0318C56.7222 46.0318 58.8392 46.7258 60.2682 47.6538C60.3072 47.6708 60.3282 47.6888 60.3532 47.6888C62.3682 49.7218 62.9792 53.5438 61.9092 56.3158Z" fill="#003B70"/>
<path d="M59.6374 49.726C58.4424 48.298 56.5324 48.298 54.7294 48.174H54.4974C53.8304 48.468 53.0904 48.829 52.3994 49.247C51.3894 49.86 50.5084 50.654 50.0724 51.645C50.4924 53.802 50.6444 56.217 52.4084 57.386C52.7004 57.574 53.0314 57.746 53.4404 57.871C53.9204 57.977 54.2724 58.101 54.7344 58.101C56.4174 58.225 58.0954 57.382 59.2894 56.065C59.6244 55.455 59.9954 54.804 60.2734 54.114C60.6084 53.313 60.7984 52.474 60.6084 51.634C60.5234 51.408 60.3934 51.22 60.2714 51.029C60.0184 50.646 59.7224 50.292 59.6374 49.726ZM55.6964 55.225C55.1104 55.477 54.8584 55.225 54.7314 54.996C54.5034 54.747 54.3774 54.386 54.1464 54.386C53.6604 53.802 53.9114 52.966 53.9114 52.374C54.1464 51.996 54.3724 51.769 54.7294 51.769C55.4614 51.536 56.4104 52.12 56.7674 52.835C57.1254 53.929 56.1794 54.513 55.6964 55.225Z" fill="#003B70"/>
</g>
<defs>
<clipPath id="clip0_39_2">
<rect width="107.76" height="107.88" fill="white"/>
</clipPath>
</defs>
</svg>
